<svg width="127" height="57" viewBox="0 0 127 57" fill="none" xmlns="http://www.w3.org/2000/svg">
<path d="M0 24C0 10.7452 10.7452 0 24 0H124C125.657 0 127 1.34315 127 3V33C127 46.2548 116.255 57 103 57H3C1.34314 57 0 55.6569 0 54V24Z" fill="url(#paint0_linear)"/>
<path d="M53.4409 12.2948H49.0838C48.7856 12.2948 48.532 12.5112 48.4855 12.8052L46.7233 23.9651C46.6883 24.1853 46.859 24.3838 47.0826 24.3838H49.1628C49.4609 24.3838 49.7145 24.1675 49.761 23.8728L50.2363 20.8628C50.2821 20.5682 50.5363 20.3518 50.8339 20.3518H52.2132C55.0833 20.3518 56.7398 18.9645 57.1723 16.2155C57.3673 15.0127 57.1806 14.0677 56.6168 13.4059C55.9975 12.6792 54.8992 12.2948 53.4409 12.2948ZM53.9435 16.3707C53.7053 17.9324 52.5107 17.9324 51.3557 17.9324H50.6982L51.1594 15.0159C51.1868 14.8396 51.3397 14.7098 51.5181 14.7098H51.8195C52.6063 14.7098 53.3485 14.7098 53.732 15.1578C53.9607 15.4251 54.0308 15.8222 53.9435 16.3707Z" fill="#253B80"/>
<path d="M66.4648 16.3205H64.3783C64.2006 16.3205 64.047 16.4503 64.0196 16.6265L63.9272 17.2095L63.7814 16.9982C63.3296 16.3434 62.3224 16.1245 61.3171 16.1245C59.0114 16.1245 57.0421 17.8687 56.6586 20.3155C56.4592 21.5361 56.7427 22.7032 57.4359 23.5171C58.0717 24.2655 58.9815 24.5773 60.0639 24.5773C61.9217 24.5773 62.9518 23.3841 62.9518 23.3841L62.8588 23.9632C62.8238 24.1846 62.9945 24.3832 63.2169 24.3832H65.0963C65.3951 24.3832 65.6474 24.1668 65.6946 23.8722L66.8222 16.7392C66.8579 16.5196 66.6878 16.3205 66.4648 16.3205ZM63.5565 20.3766C63.3551 21.5673 62.409 22.3665 61.2024 22.3665C60.5965 22.3665 60.1123 22.1725 59.8014 21.8046C59.4931 21.4394 59.3758 20.9195 59.4739 20.3404C59.6619 19.1599 60.6239 18.3345 61.8121 18.3345C62.4046 18.3345 62.8862 18.5312 63.2035 18.9022C63.5214 19.277 63.6476 19.8001 63.5565 20.3766Z" fill="#253B80"/>
<path d="M77.5772 16.3204H75.4805C75.2804 16.3204 75.0925 16.4197 74.9791 16.5858L72.0873 20.8405L70.8615 16.7519C70.7845 16.4961 70.5481 16.3204 70.2805 16.3204H68.2201C67.9698 16.3204 67.7958 16.5648 67.8755 16.8003L70.1849 23.5699L68.0137 26.6315C67.843 26.8726 68.015 27.2042 68.31 27.2042H70.4041C70.6029 27.2042 70.7889 27.1075 70.9017 26.9445L77.8753 16.89C78.0423 16.6495 77.8709 16.3204 77.5772 16.3204Z" fill="#253B80"/>
<path d="M84.519 12.2948H80.1613C79.8637 12.2948 79.6102 12.5112 79.5637 12.8052L77.8014 23.9651C77.7664 24.1853 77.9372 24.3838 78.1595 24.3838H80.3957C80.6034 24.3838 80.7812 24.2324 80.8136 24.0262L81.3138 20.8628C81.3596 20.5682 81.6138 20.3518 81.9114 20.3518H83.29C86.1608 20.3518 87.8166 18.9645 88.2498 16.2155C88.4454 15.0127 88.2575 14.0677 87.6937 13.4059C87.075 12.6792 85.9773 12.2948 84.519 12.2948ZM85.0217 16.3707C84.784 17.9324 83.5895 17.9324 82.4338 17.9324H81.7769L82.2388 15.0159C82.2662 14.8396 82.4179 14.7098 82.5969 14.7098H82.8982C83.6844 14.7098 84.4273 14.7098 84.8108 15.1578C85.0395 15.4251 85.109 15.8222 85.0217 16.3707Z" fill="#179BD7"/>
<path d="M97.5426 16.3205H95.4574C95.2784 16.3205 95.1261 16.4503 95.0994 16.6265L95.007 17.2095L94.8605 16.9982C94.4088 16.3434 93.4022 16.1245 92.3968 16.1245C90.0912 16.1245 88.1225 17.8687 87.739 20.3155C87.5402 21.5361 87.8225 22.7032 88.5156 23.5171C89.1527 24.2655 90.0612 24.5773 91.1436 24.5773C93.0014 24.5773 94.0316 23.3841 94.0316 23.3841L93.9386 23.9632C93.9035 24.1846 94.0743 24.3832 94.2979 24.3832H96.1767C96.4742 24.3832 96.7278 24.1668 96.7743 23.8722L97.9026 16.7392C97.937 16.5196 97.7663 16.3205 97.5426 16.3205ZM94.6343 20.3766C94.4343 21.5673 93.4869 22.3665 92.2802 22.3665C91.6756 22.3665 91.1902 22.1725 90.8792 21.8046C90.5709 21.4394 90.4549 20.9195 90.5518 20.3404C90.741 19.1599 91.7017 18.3345 92.8899 18.3345C93.4824 18.3345 93.9641 18.5312 94.2813 18.9022C94.6005 19.277 94.7267 19.8001 94.6343 20.3766Z" fill="#179BD7"/>
<path d="M100.002 12.6009L98.214 23.9651C98.179 24.1853 98.3498 24.3838 98.5721 24.3838H100.37C100.669 24.3838 100.922 24.1675 100.968 23.8728L102.732 12.7136C102.767 12.4934 102.596 12.2942 102.374 12.2942H100.36C100.183 12.2948 100.03 12.4246 100.002 12.6009Z" fill="#179BD7"/>
<path d="M28.629 26.5526L28.9622 24.4386L28.22 24.4214H24.6758L27.1388 8.82219C27.1464 8.7751 27.1713 8.73119 27.2076 8.70001C27.2439 8.66882 27.2904 8.65164 27.3388 8.65164H33.3148C35.2987 8.65164 36.6679 9.06401 37.3827 9.87791C37.7178 10.2597 37.9312 10.6587 38.0344 11.0978C38.1427 11.5586 38.1446 12.109 38.0389 12.7804L38.0312 12.8294V13.2596L38.3664 13.4492C38.6486 13.5987 38.8728 13.7699 39.0449 13.9659C39.3316 14.2924 39.5169 14.7073 39.5953 15.1992C39.6762 15.7051 39.6495 16.3071 39.517 16.9886C39.364 17.7726 39.1169 18.4555 38.783 19.0142C38.4759 19.529 38.0848 19.956 37.6203 20.2869C37.1769 20.6013 36.65 20.8399 36.0543 20.9926C35.4771 21.1428 34.819 21.2186 34.0972 21.2186H33.6321C33.2995 21.2186 32.9765 21.3382 32.723 21.5526C32.4687 21.7716 32.3006 22.0706 32.249 22.3977L32.2139 22.588L31.6252 26.3139L31.5985 26.4507C31.5915 26.494 31.5794 26.5156 31.5615 26.5303C31.5456 26.5436 31.5227 26.5526 31.5004 26.5526H28.629Z" fill="#253B80"/>
<path d="M38.6836 12.879C38.6658 12.9929 38.6454 13.1094 38.6225 13.229C37.8344 17.2705 35.1382 18.6667 31.6947 18.6667H29.9414C29.5203 18.6667 29.1654 18.9722 29.0998 19.3871L28.2021 25.0736L27.9479 26.6855C27.9052 26.9579 28.1155 27.2035 28.3907 27.2035H31.5004C31.8686 27.2035 32.1814 26.9363 32.2394 26.5735L32.27 26.4157L32.8555 22.7045L32.893 22.5008C32.9504 22.1368 33.2638 21.8695 33.6321 21.8695H34.0972C37.11 21.8695 39.4685 20.6477 40.1579 17.1121C40.4458 15.6351 40.2968 14.4018 39.5348 13.5345C39.3042 13.2729 39.0181 13.0559 38.6836 12.879Z" fill="#179BD7"/>
<path d="M37.8595 12.5506C37.7391 12.5156 37.6149 12.4838 37.4875 12.4552C37.3594 12.4272 37.2282 12.4024 37.0931 12.3807C36.6204 12.3044 36.1024 12.2681 35.5475 12.2681H30.8636C30.7483 12.2681 30.6387 12.2942 30.5406 12.3413C30.3246 12.445 30.164 12.6493 30.1252 12.8994L29.1288 19.2032L29.1001 19.3871C29.1657 18.9722 29.5206 18.6667 29.9417 18.6667H31.695C35.1385 18.6667 37.8347 17.2699 38.6228 13.229C38.6464 13.1094 38.6661 12.9929 38.6839 12.879C38.4845 12.7734 38.2686 12.683 38.036 12.606C37.9787 12.5869 37.9194 12.5685 37.8595 12.5506Z" fill="#222D65"/>
<path d="M30.125 12.8994C30.1639 12.6493 30.3245 12.445 30.5404 12.3419C30.6392 12.2948 30.7481 12.2687 30.8634 12.2687H35.5474C36.1023 12.2687 36.6202 12.305 37.093 12.3814C37.228 12.403 37.3593 12.4278 37.4873 12.4558C37.6148 12.4845 37.739 12.5163 37.8594 12.5513C37.9193 12.5691 37.9785 12.5875 38.0365 12.606C38.269 12.683 38.485 12.774 38.6844 12.879C38.9189 11.3855 38.6825 10.3685 37.874 9.44773C36.9828 8.434 35.3741 8 33.3156 8H27.3397C26.9192 8 26.5605 8.30545 26.4955 8.721L24.0064 24.4805C23.9573 24.7924 24.1981 25.0736 24.5129 25.0736H28.2023L29.1286 19.2032L30.125 12.8994Z" fill="#253B80"/>
<path d="M37.134 44.14C36.2473 44.14 35.4867 44.0093 34.852 43.748C34.2173 43.4867 33.7367 43.146 33.41 42.726C33.0927 42.2967 32.9247 41.83 32.906 41.326C32.906 41.2513 32.934 41.186 32.99 41.13C33.0553 41.0647 33.13 41.032 33.214 41.032H34.978C35.09 41.032 35.1787 41.0553 35.244 41.102C35.3187 41.1393 35.3933 41.2 35.468 41.284C35.5893 41.5267 35.7853 41.7273 36.056 41.886C36.3267 42.0447 36.686 42.124 37.134 42.124C37.666 42.124 38.072 42.04 38.352 41.872C38.632 41.704 38.772 41.4753 38.772 41.186C38.772 40.9807 38.6973 40.8127 38.548 40.682C38.408 40.5513 38.184 40.4347 37.876 40.332C37.568 40.2293 37.1107 40.1127 36.504 39.982C35.384 39.7487 34.544 39.408 33.984 38.96C33.4333 38.5027 33.158 37.854 33.158 37.014C33.158 36.4447 33.3167 35.936 33.634 35.488C33.9513 35.04 34.404 34.69 34.992 34.438C35.58 34.186 36.266 34.06 37.05 34.06C37.862 34.06 38.5667 34.2 39.164 34.48C39.7613 34.76 40.214 35.1147 40.522 35.544C40.8393 35.964 41.0073 36.3793 41.026 36.79C41.026 36.874 40.998 36.944 40.942 37C40.886 37.056 40.816 37.084 40.732 37.084H38.884C38.772 37.084 38.6787 37.0653 38.604 37.028C38.5387 36.9907 38.478 36.93 38.422 36.846C38.366 36.6313 38.212 36.4493 37.96 36.3C37.7173 36.1507 37.414 36.076 37.05 36.076C36.63 36.076 36.308 36.1507 36.084 36.3C35.86 36.4493 35.748 36.6687 35.748 36.958C35.748 37.154 35.8087 37.3173 35.93 37.448C36.0607 37.5787 36.266 37.7 36.546 37.812C36.8353 37.9147 37.246 38.022 37.778 38.134C38.646 38.2927 39.3367 38.4933 39.85 38.736C40.3727 38.9693 40.7553 39.2773 40.998 39.66C41.2407 40.0333 41.362 40.5047 41.362 41.074C41.362 41.6993 41.18 42.2453 40.816 42.712C40.4613 43.1693 39.962 43.524 39.318 43.776C38.6833 44.0187 37.9553 44.14 37.134 44.14ZM42.9592 46.66C42.8659 46.66 42.7819 46.6273 42.7072 46.562C42.6419 46.4967 42.6092 46.4127 42.6092 46.31V37.07C42.6092 36.9673 42.6419 36.8833 42.7072 36.818C42.7819 36.7527 42.8659 36.72 42.9592 36.72H44.5412C44.6439 36.72 44.7279 36.7527 44.7932 36.818C44.8585 36.8833 44.8912 36.9673 44.8912 37.07V37.574C45.3952 36.9113 46.1185 36.58 47.0612 36.58C47.9759 36.58 48.6899 36.8647 49.2032 37.434C49.7165 38.0033 49.9965 38.806 50.0432 39.842C50.0525 39.9633 50.0572 40.136 50.0572 40.36C50.0572 40.584 50.0525 40.7567 50.0432 40.878C50.0059 41.886 49.7259 42.684 49.2032 43.272C48.6805 43.8507 47.9665 44.14 47.0612 44.14C46.1465 44.14 45.4652 43.8273 45.0172 43.202V46.31C45.0172 46.4127 44.9845 46.4967 44.9192 46.562C44.8539 46.6273 44.7699 46.66 44.6672 46.66H42.9592ZM46.3052 42.264C46.7439 42.264 47.0565 42.1333 47.2432 41.872C47.4392 41.6107 47.5512 41.2513 47.5792 40.794C47.5979 40.6073 47.6072 40.4627 47.6072 40.36C47.6072 40.2573 47.5979 40.1127 47.5792 39.926C47.5512 39.4687 47.4392 39.1093 47.2432 38.848C47.0565 38.5867 46.7439 38.456 46.3052 38.456C45.8759 38.456 45.5585 38.5913 45.3532 38.862C45.1572 39.1233 45.0452 39.464 45.0172 39.884L45.0032 40.402L45.0172 40.934C45.0359 41.3167 45.1525 41.634 45.3672 41.886C45.5819 42.138 45.8945 42.264 46.3052 42.264ZM54.8012 44.14C53.6812 44.14 52.7992 43.8367 52.1552 43.23C51.5112 42.6233 51.1752 41.7413 51.1472 40.584V40.094C51.1846 38.9927 51.5252 38.134 52.1692 37.518C52.8226 36.8927 53.6952 36.58 54.7872 36.58C55.5806 36.58 56.2479 36.7433 56.7892 37.07C57.3399 37.3873 57.7506 37.826 58.0212 38.386C58.3012 38.946 58.4412 39.59 58.4412 40.318V40.654C58.4412 40.7473 58.4086 40.8313 58.3432 40.906C58.2779 40.9713 58.1939 41.004 58.0912 41.004H53.6112V41.102C53.6299 41.5407 53.7372 41.8953 53.9332 42.166C54.1292 42.4367 54.4139 42.572 54.7872 42.572C55.0206 42.572 55.2119 42.5253 55.3612 42.432C55.5106 42.3293 55.6459 42.208 55.7672 42.068C55.8512 41.9653 55.9166 41.9047 55.9632 41.886C56.0192 41.858 56.1032 41.844 56.2152 41.844H57.9512C58.0352 41.844 58.1052 41.872 58.1612 41.928C58.2266 41.9747 58.2592 42.04 58.2592 42.124C58.2592 42.3667 58.1192 42.6467 57.8392 42.964C57.5686 43.2813 57.1719 43.5567 56.6492 43.79C56.1266 44.0233 55.5106 44.14 54.8012 44.14ZM55.9772 39.618V39.59C55.9772 39.1327 55.8699 38.7733 55.6552 38.512C55.4499 38.2413 55.1606 38.106 54.7872 38.106C54.4232 38.106 54.1339 38.2413 53.9192 38.512C53.7139 38.7733 53.6112 39.1327 53.6112 39.59V39.618H55.9772ZM60.1037 44C60.0011 44 59.9171 43.9673 59.8517 43.902C59.7864 43.8367 59.7537 43.7527 59.7537 43.65V37.07C59.7537 36.9673 59.7864 36.8833 59.8517 36.818C59.9171 36.7527 60.0011 36.72 60.1037 36.72H61.7137C61.8164 36.72 61.9004 36.7527 61.9657 36.818C62.0404 36.8833 62.0777 36.9673 62.0777 37.07V37.602C62.3297 37.294 62.6517 37.0467 63.0437 36.86C63.4451 36.6733 63.8977 36.58 64.4017 36.58C65.2231 36.58 65.8904 36.86 66.4037 37.42C66.9171 37.9707 67.1737 38.7453 67.1737 39.744V43.65C67.1737 43.7433 67.1411 43.8273 67.0757 43.902C67.0104 43.9673 66.9264 44 66.8237 44H65.0597C64.9664 44 64.8824 43.9673 64.8077 43.902C64.7424 43.8273 64.7097 43.7433 64.7097 43.65V39.828C64.7097 39.3893 64.6024 39.0533 64.3877 38.82C64.1731 38.5773 63.8651 38.456 63.4637 38.456C63.0717 38.456 62.7637 38.5773 62.5397 38.82C62.3157 39.0533 62.2037 39.3893 62.2037 39.828V43.65C62.2037 43.7433 62.1711 43.8273 62.1057 43.902C62.0404 43.9673 61.9564 44 61.8537 44H60.1037ZM71.4658 44.14C70.5512 44.14 69.8372 43.8553 69.3238 43.286C68.8198 42.7073 68.5445 41.8953 68.4978 40.85L68.4838 40.36L68.4978 39.856C68.5352 38.848 68.8105 38.05 69.3238 37.462C69.8465 36.874 70.5605 36.58 71.4658 36.58C72.3152 36.58 73.0012 36.8553 73.5238 37.406V34.41C73.5238 34.3073 73.5565 34.2233 73.6218 34.158C73.6872 34.0927 73.7712 34.06 73.8738 34.06H75.5818C75.6845 34.06 75.7685 34.0927 75.8338 34.158C75.8992 34.2233 75.9318 34.3073 75.9318 34.41V43.65C75.9318 43.7433 75.8992 43.8273 75.8338 43.902C75.7685 43.9673 75.6845 44 75.5818 44H73.9998C73.9065 44 73.8225 43.9673 73.7478 43.902C73.6825 43.8273 73.6498 43.7433 73.6498 43.65V43.202C73.1365 43.8273 72.4085 44.14 71.4658 44.14ZM72.2358 42.264C72.6558 42.264 72.9685 42.1333 73.1738 41.872C73.3792 41.6013 73.4958 41.256 73.5238 40.836C73.5332 40.7147 73.5378 40.5373 73.5378 40.304C73.5378 40.08 73.5332 39.9073 73.5238 39.786C73.5052 39.4033 73.3885 39.086 73.1738 38.834C72.9592 38.582 72.6465 38.456 72.2358 38.456C71.7972 38.456 71.4798 38.5867 71.2838 38.848C71.0972 39.1093 70.9898 39.4687 70.9618 39.926C70.9525 40.0193 70.9478 40.164 70.9478 40.36C70.9478 40.556 70.9525 40.7007 70.9618 40.794C70.9898 41.2513 71.0972 41.6107 71.2838 41.872C71.4798 42.1333 71.7972 42.264 72.2358 42.264ZM80.9419 44.14C79.8219 44.14 78.9399 43.8367 78.2959 43.23C77.6519 42.6233 77.3159 41.7413 77.2879 40.584V40.094C77.3252 38.9927 77.6659 38.134 78.3099 37.518C78.9632 36.8927 79.8359 36.58 80.9279 36.58C81.7212 36.58 82.3885 36.7433 82.9299 37.07C83.4805 37.3873 83.8912 37.826 84.1619 38.386C84.4419 38.946 84.5819 39.59 84.5819 40.318V40.654C84.5819 40.7473 84.5492 40.8313 84.4839 40.906C84.4185 40.9713 84.3345 41.004 84.2319 41.004H79.7519V41.102C79.7705 41.5407 79.8779 41.8953 80.0739 42.166C80.2699 42.4367 80.5545 42.572 80.9279 42.572C81.1612 42.572 81.3525 42.5253 81.5019 42.432C81.6512 42.3293 81.7865 42.208 81.9079 42.068C81.9919 41.9653 82.0572 41.9047 82.1039 41.886C82.1599 41.858 82.2439 41.844 82.3559 41.844H84.0919C84.1759 41.844 84.2459 41.872 84.3019 41.928C84.3672 41.9747 84.3999 42.04 84.3999 42.124C84.3999 42.3667 84.2599 42.6467 83.9799 42.964C83.7092 43.2813 83.3125 43.5567 82.7899 43.79C82.2672 44.0233 81.6512 44.14 80.9419 44.14ZM82.1179 39.618V39.59C82.1179 39.1327 82.0105 38.7733 81.7959 38.512C81.5905 38.2413 81.3012 38.106 80.9279 38.106C80.5639 38.106 80.2745 38.2413 80.0599 38.512C79.8545 38.7733 79.7519 39.1327 79.7519 39.59V39.618H82.1179ZM86.2444 44C86.1417 44 86.0577 43.9673 85.9924 43.902C85.927 43.8367 85.8944 43.7527 85.8944 43.65V37.07C85.8944 36.9673 85.927 36.8833 85.9924 36.818C86.0577 36.7527 86.1417 36.72 86.2444 36.72H87.8544C87.957 36.72 88.041 36.7527 88.1064 36.818C88.181 36.8833 88.2184 36.9673 88.2184 37.07V37.602C88.4704 37.294 88.7924 37.0467 89.1844 36.86C89.5857 36.6733 90.0384 36.58 90.5424 36.58C91.3637 36.58 92.031 36.86 92.5444 37.42C93.0577 37.9707 93.3144 38.7453 93.3144 39.744V43.65C93.3144 43.7433 93.2817 43.8273 93.2164 43.902C93.151 43.9673 93.067 44 92.9644 44H91.2004C91.107 44 91.023 43.9673 90.9484 43.902C90.883 43.8273 90.8504 43.7433 90.8504 43.65V39.828C90.8504 39.3893 90.743 39.0533 90.5284 38.82C90.3137 38.5773 90.0057 38.456 89.6044 38.456C89.2124 38.456 88.9044 38.5773 88.6804 38.82C88.4564 39.0533 88.3444 39.3893 88.3444 39.828V43.65C88.3444 43.7433 88.3117 43.8273 88.2464 43.902C88.181 43.9673 88.097 44 87.9944 44H86.2444Z" fill="#18191B"/>
<defs>
<linearGradient id="paint0_linear" x1="63.5" y1="0" x2="63.5" y2="57" gradientUnits="userSpaceOnUse">
<stop stop-color="#FFE1BE"/>
<stop offset="0.203125" stop-color="#FFDA80"/>
<stop offset="1" stop-color="#FFD231"/>
</linearGradient>
</defs>
</svg>
